<mxfile host="app.diagrams.net" modified="2022-01-29T02:28:29.531Z" agent="5.0 (Windows NT 10.0; Win64; x64) AppleWebKit/537.36 (KHTML, like Gecko) Chrome/97.0.4692.99 Safari/537.36" etag="pAvczROYgGxv4VI8HEMC" version="16.5.0" type="github">
  <diagram id="l4tcxmfZncSMQ29FKpY7" name="Page-1">
    <mxGraphModel dx="6037" dy="3626" grid="1" gridSize="10" guides="1" tooltips="1" connect="1" arrows="1" fold="1" page="1" pageScale="1" pageWidth="827" pageHeight="1169" math="0" shadow="0">
      <root>
        <mxCell id="0" />
        <mxCell id="1" parent="0" />
        <mxCell id="yh1fPblWoHR3ejIN9CGP-2" value="&lt;pre style=&quot;background-color: #ffffff ; color: #080808 ; font-family: &amp;#34;jetbrains mono&amp;#34; , monospace ; font-size: 9.8pt&quot;&gt;&lt;span style=&quot;color: #00627a&quot;&gt;PendingUpdateNotification # &lt;/span&gt;&lt;/pre&gt;&lt;pre style=&quot;background-color: #ffffff ; color: #080808 ; font-family: &amp;#34;jetbrains mono&amp;#34; , monospace ; font-size: 9.8pt&quot;&gt;&lt;span style=&quot;color: #00627a&quot;&gt;updateExistingNotification&lt;/span&gt;(&lt;span style=&quot;color: #9e880d&quot;&gt;@Nullable &lt;/span&gt;&lt;span style=&quot;color: #000000&quot;&gt;String &lt;/span&gt;newInstalledPackageName)&lt;/pre&gt;&lt;pre style=&quot;background-color: #ffffff ; color: #080808 ; font-family: &amp;#34;jetbrains mono&amp;#34; , monospace ; font-size: 9.8pt&quot;&gt;条件拦截：&lt;/pre&gt;&lt;pre style=&quot;background-color: #ffffff ; color: #080808 ; font-family: &amp;#34;jetbrains mono&amp;#34; , monospace ; font-size: 9.8pt&quot;&gt;1. 存在更新通知，不限制&lt;/pre&gt;&lt;pre style=&quot;background-color: #ffffff ; color: #080808 ; font-family: &amp;#34;jetbrains mono&amp;#34; , monospace ; font-size: 9.8pt&quot;&gt;2. 不存在更新通知&lt;/pre&gt;&lt;pre style=&quot;background-color: #ffffff ; color: #080808 ; font-family: &amp;#34;jetbrains mono&amp;#34; , monospace ; font-size: 9.8pt&quot;&gt;①. 外部安装应用，有更新.&amp;amp; 满足检查更新间隔条件&lt;/pre&gt;&lt;pre style=&quot;background-color: #ffffff ; color: #080808 ; font-family: &amp;#34;jetbrains mono&amp;#34; , monospace ; font-size: 9.8pt&quot;&gt;②.内部安装应用，满足更新间隔时间&lt;/pre&gt;" style="rounded=1;whiteSpace=wrap;html=1;" parent="1" vertex="1">
          <mxGeometry x="190" y="280" width="486" height="190" as="geometry" />
        </mxCell>
        <mxCell id="yh1fPblWoHR3ejIN9CGP-3" value="&lt;span style=&quot;background-color: rgb(255 , 255 , 255) ; font-family: &amp;#34;jetbrains mono&amp;#34; , monospace ; font-size: 9.8pt&quot;&gt;CheckUpdateService&lt;/span&gt;#&lt;br&gt;&lt;pre style=&quot;background-color: #ffffff ; color: #080808 ; font-family: &amp;#34;jetbrains mono&amp;#34; , monospace ; font-size: 9.8pt&quot;&gt;&lt;span style=&quot;color: #00627a&quot;&gt;tryDoWork&lt;/span&gt;(&lt;span style=&quot;color: #000000&quot;&gt;Intent &lt;/span&gt;intent)&lt;/pre&gt;&lt;pre style=&quot;background-color: #ffffff ; color: #080808 ; font-family: &amp;#34;jetbrains mono&amp;#34; , monospace ; font-size: 9.8pt&quot;&gt;检查更新Service&lt;/pre&gt;" style="rounded=1;whiteSpace=wrap;html=1;" parent="1" vertex="1">
          <mxGeometry x="660" y="-550" width="190" height="90" as="geometry" />
        </mxCell>
        <mxCell id="yh1fPblWoHR3ejIN9CGP-4" value="&lt;pre style=&quot;background-color: #ffffff ; color: #080808 ; font-family: &amp;#34;jetbrains mono&amp;#34; , monospace ; font-size: 9.8pt&quot;&gt;&lt;pre style=&quot;font-family: &amp;#34;jetbrains mono&amp;#34; , monospace ; font-size: 9.8pt&quot;&gt;&lt;span style=&quot;color: #000000&quot;&gt;LocalAppManager#&lt;/span&gt;&lt;/pre&gt;&lt;/pre&gt;&lt;pre style=&quot;background-color: #ffffff ; color: #080808 ; font-family: &amp;#34;jetbrains mono&amp;#34; , monospace ; font-size: 9.8pt&quot;&gt;&lt;span style=&quot;color: #00627a&quot;&gt;checkAllUpdates&lt;/span&gt;(&lt;span style=&quot;color: #0033b3&quot;&gt;boolean &lt;/span&gt;background)&lt;/pre&gt;&lt;pre style=&quot;background-color: #ffffff ; color: #080808 ; font-family: &amp;#34;jetbrains mono&amp;#34; , monospace ; font-size: 9.8pt&quot;&gt;从服务端检查更新 并 更新上次检查更新时间&lt;/pre&gt;" style="rounded=1;whiteSpace=wrap;html=1;" parent="1" vertex="1">
          <mxGeometry x="320" y="40" width="300" height="80" as="geometry" />
        </mxCell>
        <mxCell id="yh1fPblWoHR3ejIN9CGP-5" value="&lt;pre style=&quot;background-color: #ffffff ; color: #080808 ; font-family: &amp;#34;jetbrains mono&amp;#34; , monospace ; font-size: 9.8pt&quot;&gt;&lt;pre style=&quot;font-family: &amp;#34;jetbrains mono&amp;#34; , monospace ; font-size: 9.8pt&quot;&gt;&lt;span style=&quot;color: #000000&quot;&gt;MyPackageMonitor#&lt;/span&gt;&lt;/pre&gt;&lt;/pre&gt;&lt;pre style=&quot;background-color: #ffffff ; color: #080808 ; font-family: &amp;#34;jetbrains mono&amp;#34; , monospace ; font-size: 9.8pt&quot;&gt;&lt;pre style=&quot;font-family: &amp;#34;jetbrains mono&amp;#34; , monospace ; font-size: 9.8pt&quot;&gt;&lt;span style=&quot;color: #00627a&quot;&gt;onPackageUpdateFinished&lt;/span&gt;(&lt;span style=&quot;color: #000000&quot;&gt;String &lt;/span&gt;packageName, &lt;span style=&quot;color: #0033b3&quot;&gt;int &lt;/span&gt;uid)&lt;/pre&gt;&lt;pre style=&quot;font-family: &amp;#34;jetbrains mono&amp;#34; , monospace ; font-size: 9.8pt&quot;&gt;应用安装完成&lt;/pre&gt;&lt;/pre&gt;" style="rounded=1;whiteSpace=wrap;html=1;" parent="1" vertex="1">
          <mxGeometry x="730" y="40" width="370" height="80" as="geometry" />
        </mxCell>
        <mxCell id="yh1fPblWoHR3ejIN9CGP-6" value="&lt;pre style=&quot;background-color: #ffffff ; color: #080808 ; font-family: &amp;#34;jetbrains mono&amp;#34; , monospace ; font-size: 9.8pt&quot;&gt;&lt;pre style=&quot;font-family: &amp;#34;jetbrains mono&amp;#34; , monospace ; font-size: 9.8pt&quot;&gt;&lt;span style=&quot;color: #000000&quot;&gt;MyPackageMonitor#&lt;/span&gt;&lt;/pre&gt;&lt;/pre&gt;&lt;pre style=&quot;background-color: #ffffff ; color: #080808 ; font-family: &amp;#34;jetbrains mono&amp;#34; , monospace ; font-size: 9.8pt&quot;&gt;&lt;pre style=&quot;font-family: &amp;#34;jetbrains mono&amp;#34; , monospace ; font-size: 9.8pt&quot;&gt;&lt;span style=&quot;color: rgb(0 , 98 , 122) ; font-family: &amp;#34;jetbrains mono&amp;#34; , monospace ; font-size: 9.8pt&quot;&gt;onPackageRemoved&lt;/span&gt;(&lt;span style=&quot;color: #000000&quot;&gt;String &lt;/span&gt;packageName, &lt;span style=&quot;color: #0033b3&quot;&gt;int &lt;/span&gt;uid)&lt;/pre&gt;&lt;pre style=&quot;font-family: &amp;#34;jetbrains mono&amp;#34; , monospace ; font-size: 9.8pt&quot;&gt;应用卸载完成&lt;/pre&gt;&lt;/pre&gt;" style="rounded=1;whiteSpace=wrap;html=1;" parent="1" vertex="1">
          <mxGeometry x="1280" y="40" width="370" height="80" as="geometry" />
        </mxCell>
        <mxCell id="yh1fPblWoHR3ejIN9CGP-7" value="&lt;pre style=&quot;background-color: #ffffff ; color: #080808 ; font-family: &amp;#34;jetbrains mono&amp;#34; , monospace ; font-size: 9.8pt&quot;&gt;&lt;pre style=&quot;font-family: &amp;#34;jetbrains mono&amp;#34; , monospace ; font-size: 9.8pt&quot;&gt;&lt;pre style=&quot;font-family: &amp;#34;jetbrains mono&amp;#34; , monospace ; font-size: 9.8pt&quot;&gt;&lt;span style=&quot;color: #000000&quot;&gt;PendingUpdateNotification #&lt;/span&gt;&lt;/pre&gt;&lt;/pre&gt;&lt;pre style=&quot;font-family: &amp;#34;jetbrains mono&amp;#34; , monospace ; font-size: 9.8pt&quot;&gt;&lt;span style=&quot;color: #00627a&quot;&gt;showIfNeed&lt;/span&gt;(&lt;span style=&quot;color: #000000&quot;&gt;String &lt;/span&gt;updateSource, &lt;span style=&quot;color: #000000&quot;&gt;String &lt;/span&gt;newInstalledPackageName)&lt;/pre&gt;&lt;pre style=&quot;font-family: &amp;#34;jetbrains mono&amp;#34; , monospace ; font-size: 9.8pt&quot;&gt;根据条件判断是否展示通知&lt;/pre&gt;&lt;/pre&gt;" style="rounded=1;whiteSpace=wrap;html=1;" parent="1" vertex="1">
          <mxGeometry x="1810" y="30" width="530" height="90" as="geometry" />
        </mxCell>
        <mxCell id="yh1fPblWoHR3ejIN9CGP-8" value="" style="endArrow=classic;html=1;rounded=0;exitX=0.5;exitY=1;exitDx=0;exitDy=0;entryX=0.5;entryY=0;entryDx=0;entryDy=0;" parent="1" source="yh1fPblWoHR3ejIN9CGP-3" target="yh1fPblWoHR3ejIN9CGP-7" edge="1">
          <mxGeometry width="50" height="50" relative="1" as="geometry">
            <mxPoint x="380" y="100" as="sourcePoint" />
            <mxPoint x="430" y="50" as="targetPoint" />
            <Array as="points">
              <mxPoint x="1360" y="-230" />
            </Array>
          </mxGeometry>
        </mxCell>
        <mxCell id="yh1fPblWoHR3ejIN9CGP-9" value="&lt;pre style=&quot;background-color: #ffffff ; color: #080808 ; font-family: &amp;#34;jetbrains mono&amp;#34; , monospace ; font-size: 9.8pt&quot;&gt;&lt;pre style=&quot;font-family: &amp;#34;jetbrains mono&amp;#34; , monospace ; font-size: 9.8pt&quot;&gt;&lt;span style=&quot;color: #000000&quot;&gt;LocalAppManager #&lt;/span&gt;&lt;/pre&gt;&lt;/pre&gt;&lt;pre style=&quot;background-color: #ffffff ; color: #080808 ; font-family: &amp;#34;jetbrains mono&amp;#34; , monospace ; font-size: 9.8pt&quot;&gt;&lt;span style=&quot;color: #00627a&quot;&gt;checkUpdateBackground&lt;/span&gt;(&lt;span style=&quot;color: #0033b3&quot;&gt;boolean &lt;/span&gt;forceRecheck)&lt;/pre&gt;&lt;pre style=&quot;background-color: #ffffff ; color: #080808 ; font-family: &amp;#34;jetbrains mono&amp;#34; , monospace ; font-size: 9.8pt&quot;&gt;前台或后台检查更新&lt;/pre&gt;" style="rounded=1;whiteSpace=wrap;html=1;" parent="1" vertex="1">
          <mxGeometry x="300" y="-220" width="340" height="100" as="geometry" />
        </mxCell>
        <mxCell id="yh1fPblWoHR3ejIN9CGP-10" value="" style="endArrow=classic;html=1;rounded=0;exitX=0.065;exitY=0.989;exitDx=0;exitDy=0;exitPerimeter=0;entryX=0.421;entryY=0.002;entryDx=0;entryDy=0;entryPerimeter=0;" parent="1" source="yh1fPblWoHR3ejIN9CGP-3" target="yh1fPblWoHR3ejIN9CGP-9" edge="1">
          <mxGeometry width="50" height="50" relative="1" as="geometry">
            <mxPoint x="700" y="-220" as="sourcePoint" />
            <mxPoint x="750" y="-270" as="targetPoint" />
            <Array as="points">
              <mxPoint x="330" y="-420" />
            </Array>
          </mxGeometry>
        </mxCell>
        <mxCell id="yh1fPblWoHR3ejIN9CGP-11" value="限制条件&lt;br&gt;&lt;pre style=&quot;color: rgb(8 , 8 , 8) ; font-family: &amp;#34;jetbrains mono&amp;#34; , monospace ; font-size: 9.8pt&quot;&gt;&lt;span style=&quot;color: #871094 ; font-style: italic&quot;&gt;1.DEBUG_SILENCE_SCENE_ENABLE = false&lt;/span&gt;&lt;/pre&gt;" style="edgeLabel;html=1;align=center;verticalAlign=middle;resizable=0;points=[];" parent="yh1fPblWoHR3ejIN9CGP-10" vertex="1" connectable="0">
          <mxGeometry x="0.1699" relative="1" as="geometry">
            <mxPoint as="offset" />
          </mxGeometry>
        </mxCell>
        <mxCell id="yh1fPblWoHR3ejIN9CGP-12" value="" style="endArrow=classic;html=1;rounded=0;exitX=0.398;exitY=1.021;exitDx=0;exitDy=0;exitPerimeter=0;" parent="1" source="yh1fPblWoHR3ejIN9CGP-3" target="yh1fPblWoHR3ejIN9CGP-9" edge="1">
          <mxGeometry width="50" height="50" relative="1" as="geometry">
            <mxPoint x="700" y="-220" as="sourcePoint" />
            <mxPoint x="750" y="-270" as="targetPoint" />
            <Array as="points">
              <mxPoint x="570" y="-310" />
            </Array>
          </mxGeometry>
        </mxCell>
        <mxCell id="yh1fPblWoHR3ejIN9CGP-14" value="限制条件&lt;br&gt;&lt;pre style=&quot;color: rgb(8 , 8 , 8) ; font-family: &amp;#34;jetbrains mono&amp;#34; , monospace ; font-size: 9.8pt&quot;&gt;&lt;span style=&quot;color: rgb(135 , 16 , 148) ; font-style: italic&quot;&gt;1.DEBUG_SILENCE_SCENE_ENABLE = false&lt;/span&gt;&lt;/pre&gt;&lt;pre style=&quot;color: rgb(8 , 8 , 8) ; font-family: &amp;#34;jetbrains mono&amp;#34; , monospace ; font-size: 9.8pt&quot;&gt;&lt;span style=&quot;color: rgb(135 , 16 , 148) ; font-style: italic&quot;&gt;2. 非省电模式&lt;/span&gt;&lt;/pre&gt;&lt;pre style=&quot;color: rgb(8 , 8 , 8) ; font-family: &amp;#34;jetbrains mono&amp;#34; , monospace ; font-size: 9.8pt&quot;&gt;&lt;span style=&quot;color: rgb(135 , 16 , 148) ; font-style: italic&quot;&gt;3. 强制检查更新或距离上次检查更&amp;gt;检查更新间隔时间&lt;/span&gt;&lt;/pre&gt;&lt;pre style=&quot;color: rgb(8 , 8 , 8) ; font-family: &amp;#34;jetbrains mono&amp;#34; , monospace ; font-size: 9.8pt&quot;&gt;&lt;span style=&quot;color: rgb(135 , 16 , 148) ; font-style: italic&quot;&gt;4. 有网&lt;/span&gt;&lt;/pre&gt;" style="edgeLabel;html=1;align=center;verticalAlign=middle;resizable=0;points=[];" parent="yh1fPblWoHR3ejIN9CGP-12" vertex="1" connectable="0">
          <mxGeometry x="-0.1755" y="-2" relative="1" as="geometry">
            <mxPoint as="offset" />
          </mxGeometry>
        </mxCell>
        <mxCell id="yh1fPblWoHR3ejIN9CGP-15" value="&lt;pre style=&quot;background-color: #ffffff ; color: #080808 ; font-family: &amp;#34;jetbrains mono&amp;#34; , monospace ; font-size: 9.8pt&quot;&gt;&lt;span style=&quot;color: #000000&quot;&gt;LocalAppController # &lt;/span&gt;BaseUpdateInfoLoader&lt;/pre&gt;&lt;pre style=&quot;background-color: #ffffff ; color: #080808 ; font-family: &amp;#34;jetbrains mono&amp;#34; , monospace ; font-size: 9.8pt&quot;&gt;&lt;pre style=&quot;font-family: &amp;#34;jetbrains mono&amp;#34; , monospace ; font-size: 9.8pt&quot;&gt;&lt;span style=&quot;color: #00627a&quot;&gt;doInBackground&lt;/span&gt;(&lt;span style=&quot;color: #000000&quot;&gt;Void&lt;/span&gt;... params)&lt;/pre&gt;&lt;pre style=&quot;font-family: &amp;#34;jetbrains mono&amp;#34; , monospace ; font-size: 9.8pt&quot;&gt;后台任务&lt;/pre&gt;&lt;/pre&gt;" style="rounded=1;whiteSpace=wrap;html=1;" parent="1" vertex="1">
          <mxGeometry x="-430" y="-20" width="280" height="80" as="geometry" />
        </mxCell>
        <mxCell id="yh1fPblWoHR3ejIN9CGP-16" value="&lt;pre style=&quot;background-color: rgb(255 , 255 , 255) ; color: rgb(8 , 8 , 8) ; font-family: &amp;#34;jetbrains mono&amp;#34; , monospace ; font-size: 9.8pt&quot;&gt;&lt;span style=&quot;color: rgb(0 , 0 , 0)&quot;&gt;LocalAppController #&lt;/span&gt;&lt;/pre&gt;&lt;pre style=&quot;background-color: rgb(255 , 255 , 255) ; color: rgb(8 , 8 , 8) ; font-family: &amp;#34;jetbrains mono&amp;#34; , monospace ; font-size: 9.8pt&quot;&gt;checkUpdate&lt;span style=&quot;font-family: &amp;#34;jetbrains mono&amp;#34; , monospace ; font-size: 9.8pt&quot;&gt;(&lt;/span&gt;&lt;span style=&quot;font-family: &amp;#34;jetbrains mono&amp;#34; , monospace ; font-size: 9.8pt ; color: rgb(0 , 51 , 179)&quot;&gt;boolean &lt;/span&gt;&lt;span style=&quot;font-family: &amp;#34;jetbrains mono&amp;#34; , monospace ; font-size: 9.8pt&quot;&gt;forceCheck, &lt;/span&gt;&lt;span style=&quot;font-family: &amp;#34;jetbrains mono&amp;#34; , monospace ; font-size: 9.8pt ; color: rgb(0 , 0 , 0)&quot;&gt;CheckUpdateCallback &lt;/span&gt;&lt;span style=&quot;font-family: &amp;#34;jetbrains mono&amp;#34; , monospace ; font-size: 9.8pt&quot;&gt;callback)&lt;/span&gt;&lt;/pre&gt;&lt;pre style=&quot;background-color: rgb(255 , 255 , 255) ; color: rgb(8 , 8 , 8) ; font-family: &amp;#34;jetbrains mono&amp;#34; , monospace ; font-size: 9.8pt&quot;&gt;&lt;span style=&quot;color: rgb(0 , 0 , 0)&quot;&gt;检查更新 &lt;/span&gt;&lt;/pre&gt;" style="rounded=1;whiteSpace=wrap;html=1;" parent="1" vertex="1">
          <mxGeometry x="-890" y="-230" width="410" height="80" as="geometry" />
        </mxCell>
        <mxCell id="yh1fPblWoHR3ejIN9CGP-17" value="&lt;pre style=&quot;background-color: #ffffff ; color: #080808 ; font-family: &amp;#34;jetbrains mono&amp;#34; , monospace ; font-size: 9.8pt&quot;&gt;&lt;span style=&quot;color: #000000&quot;&gt;LocalAppController#&lt;/span&gt;&lt;/pre&gt;&lt;pre style=&quot;background-color: #ffffff ; color: #080808 ; font-family: &amp;#34;jetbrains mono&amp;#34; , monospace ; font-size: 9.8pt&quot;&gt;&lt;pre style=&quot;font-family: &amp;#34;jetbrains mono&amp;#34; , monospace ; font-size: 9.8pt&quot;&gt;&lt;span style=&quot;color: #00627a&quot;&gt;checkUpdate&lt;/span&gt;(&lt;span style=&quot;color: #0033b3&quot;&gt;boolean &lt;/span&gt;recheck)&lt;/pre&gt;&lt;pre style=&quot;font-family: &amp;#34;jetbrains mono&amp;#34; , monospace ; font-size: 9.8pt&quot;&gt;检查更新&lt;/pre&gt;&lt;/pre&gt;" style="rounded=1;whiteSpace=wrap;html=1;" parent="1" vertex="1">
          <mxGeometry x="-710" y="-400" width="250" height="90" as="geometry" />
        </mxCell>
        <mxCell id="yh1fPblWoHR3ejIN9CGP-18" value="&lt;pre style=&quot;background-color: #ffffff ; color: #080808 ; font-family: &amp;#34;jetbrains mono&amp;#34; , monospace ; font-size: 9.8pt&quot;&gt;&lt;span style=&quot;color: #000000&quot;&gt;UpdateAppsCheckController #&lt;/span&gt;&lt;/pre&gt;&lt;pre style=&quot;background-color: #ffffff ; color: #080808 ; font-family: &amp;#34;jetbrains mono&amp;#34; , monospace ; font-size: 9.8pt&quot;&gt;&lt;pre style=&quot;font-family: &amp;#34;jetbrains mono&amp;#34; , monospace ; font-size: 9.8pt&quot;&gt;&lt;span style=&quot;color: #00627a&quot;&gt;check&lt;/span&gt;()&lt;/pre&gt;&lt;pre style=&quot;font-family: &amp;#34;jetbrains mono&amp;#34; , monospace ; font-size: 9.8pt&quot;&gt;检查&lt;/pre&gt;&lt;/pre&gt;" style="rounded=1;whiteSpace=wrap;html=1;" parent="1" vertex="1">
          <mxGeometry x="-1220" y="-400" width="240" height="80" as="geometry" />
        </mxCell>
        <mxCell id="yh1fPblWoHR3ejIN9CGP-19" value="&lt;pre style=&quot;background-color: #ffffff ; color: #080808 ; font-family: &amp;#34;jetbrains mono&amp;#34; , monospace ; font-size: 9.8pt&quot;&gt;&lt;span style=&quot;color: #000000&quot;&gt;UpdateAppsFragmentPad #&lt;/span&gt;&lt;/pre&gt;&lt;pre style=&quot;background-color: #ffffff ; color: #080808 ; font-family: &amp;#34;jetbrains mono&amp;#34; , monospace ; font-size: 9.8pt&quot;&gt;&lt;pre style=&quot;font-family: &amp;#34;jetbrains mono&amp;#34; , monospace ; font-size: 9.8pt&quot;&gt;&lt;span style=&quot;color: #00627a&quot;&gt;checkUpdate&lt;/span&gt;()&lt;/pre&gt;&lt;pre style=&quot;font-family: &amp;#34;jetbrains mono&amp;#34; , monospace ; font-size: 9.8pt&quot;&gt;检查更新&lt;/pre&gt;&lt;/pre&gt;" style="rounded=1;whiteSpace=wrap;html=1;" parent="1" vertex="1">
          <mxGeometry x="-1480" y="-580" width="180" height="90" as="geometry" />
        </mxCell>
        <mxCell id="yh1fPblWoHR3ejIN9CGP-20" value="&lt;pre style=&quot;background-color: #ffffff ; color: #080808 ; font-family: &amp;#34;jetbrains mono&amp;#34; , monospace ; font-size: 9.8pt&quot;&gt;&lt;span style=&quot;color: #000000&quot;&gt;UpdateAppsFragmentPhone #&lt;/span&gt;&lt;/pre&gt;&lt;pre style=&quot;background-color: #ffffff ; color: #080808 ; font-family: &amp;#34;jetbrains mono&amp;#34; , monospace ; font-size: 9.8pt&quot;&gt;&lt;pre style=&quot;font-family: &amp;#34;jetbrains mono&amp;#34; , monospace ; font-size: 9.8pt&quot;&gt;&lt;span style=&quot;color: #00627a&quot;&gt;checkUpdate&lt;/span&gt;()&lt;/pre&gt;&lt;pre style=&quot;font-family: &amp;#34;jetbrains mono&amp;#34; , monospace ; font-size: 9.8pt&quot;&gt;检查更新&lt;/pre&gt;&lt;/pre&gt;" style="rounded=1;whiteSpace=wrap;html=1;" parent="1" vertex="1">
          <mxGeometry x="-980" y="-585" width="190" height="95" as="geometry" />
        </mxCell>
        <mxCell id="yh1fPblWoHR3ejIN9CGP-22" value="" style="endArrow=classic;html=1;rounded=0;exitX=0.5;exitY=1;exitDx=0;exitDy=0;" parent="1" source="yh1fPblWoHR3ejIN9CGP-19" target="yh1fPblWoHR3ejIN9CGP-18" edge="1">
          <mxGeometry width="50" height="50" relative="1" as="geometry">
            <mxPoint x="-900" y="-560" as="sourcePoint" />
            <mxPoint x="-850" y="-610" as="targetPoint" />
          </mxGeometry>
        </mxCell>
        <mxCell id="yh1fPblWoHR3ejIN9CGP-23" value="" style="endArrow=classic;html=1;rounded=0;exitX=0.413;exitY=1.028;exitDx=0;exitDy=0;exitPerimeter=0;" parent="1" source="yh1fPblWoHR3ejIN9CGP-20" target="yh1fPblWoHR3ejIN9CGP-18" edge="1">
          <mxGeometry width="50" height="50" relative="1" as="geometry">
            <mxPoint x="-900" y="-560" as="sourcePoint" />
            <mxPoint x="-850" y="-610" as="targetPoint" />
          </mxGeometry>
        </mxCell>
        <mxCell id="yh1fPblWoHR3ejIN9CGP-24" value="" style="endArrow=classic;html=1;rounded=0;exitX=0.667;exitY=1.031;exitDx=0;exitDy=0;exitPerimeter=0;entryX=0.25;entryY=0;entryDx=0;entryDy=0;" parent="1" source="yh1fPblWoHR3ejIN9CGP-18" target="yh1fPblWoHR3ejIN9CGP-16" edge="1">
          <mxGeometry width="50" height="50" relative="1" as="geometry">
            <mxPoint x="-900" y="-260" as="sourcePoint" />
            <mxPoint x="-850" y="-310" as="targetPoint" />
          </mxGeometry>
        </mxCell>
        <mxCell id="yh1fPblWoHR3ejIN9CGP-25" value="" style="endArrow=classic;html=1;rounded=0;exitX=0.5;exitY=1;exitDx=0;exitDy=0;entryX=0.614;entryY=0.002;entryDx=0;entryDy=0;entryPerimeter=0;" parent="1" source="yh1fPblWoHR3ejIN9CGP-17" target="yh1fPblWoHR3ejIN9CGP-16" edge="1">
          <mxGeometry width="50" height="50" relative="1" as="geometry">
            <mxPoint x="-900" y="-260" as="sourcePoint" />
            <mxPoint x="-850" y="-310" as="targetPoint" />
          </mxGeometry>
        </mxCell>
        <mxCell id="yh1fPblWoHR3ejIN9CGP-26" value="&lt;pre style=&quot;background-color: #ffffff ; color: #080808 ; font-family: &amp;#34;jetbrains mono&amp;#34; , monospace ; font-size: 9.8pt&quot;&gt;&lt;span style=&quot;color: #000000&quot;&gt;BaseActivity #&lt;/span&gt;&lt;/pre&gt;&lt;pre style=&quot;background-color: #ffffff ; color: #080808 ; font-family: &amp;#34;jetbrains mono&amp;#34; , monospace ; font-size: 9.8pt&quot;&gt;&lt;pre style=&quot;font-family: &amp;#34;jetbrains mono&amp;#34; , monospace ; font-size: 9.8pt&quot;&gt;&lt;span style=&quot;color: #00627a&quot;&gt;onCreate&lt;/span&gt;(&lt;span style=&quot;color: #000000&quot;&gt;Bundle &lt;/span&gt;savedInstanceState)&lt;/pre&gt;&lt;pre style=&quot;font-family: &amp;#34;jetbrains mono&amp;#34; , monospace ; font-size: 9.8pt&quot;&gt;是否需要检查更新（注解）&lt;/pre&gt;&lt;pre style=&quot;font-family: &amp;#34;jetbrains mono&amp;#34; , monospace ; font-size: 9.8pt&quot;&gt;强制检查更新 | 满足间隔&amp;gt;30min&lt;/pre&gt;&lt;/pre&gt;" style="rounded=1;whiteSpace=wrap;html=1;" parent="1" vertex="1">
          <mxGeometry x="-570" y="-790" width="290" height="120" as="geometry" />
        </mxCell>
        <mxCell id="yh1fPblWoHR3ejIN9CGP-27" value="" style="endArrow=classic;html=1;rounded=0;exitX=0.477;exitY=1.056;exitDx=0;exitDy=0;exitPerimeter=0;entryX=0.5;entryY=0;entryDx=0;entryDy=0;" parent="1" source="yh1fPblWoHR3ejIN9CGP-26" target="yh1fPblWoHR3ejIN9CGP-17" edge="1">
          <mxGeometry width="50" height="50" relative="1" as="geometry">
            <mxPoint x="-640" y="-510" as="sourcePoint" />
            <mxPoint x="-590" y="-560" as="targetPoint" />
          </mxGeometry>
        </mxCell>
        <mxCell id="yh1fPblWoHR3ejIN9CGP-28" value="" style="endArrow=classic;html=1;rounded=0;entryX=0.432;entryY=-0.005;entryDx=0;entryDy=0;entryPerimeter=0;" parent="1" source="yh1fPblWoHR3ejIN9CGP-16" target="yh1fPblWoHR3ejIN9CGP-15" edge="1">
          <mxGeometry width="50" height="50" relative="1" as="geometry">
            <mxPoint x="-640" y="-40" as="sourcePoint" />
            <mxPoint x="-590" y="-90" as="targetPoint" />
          </mxGeometry>
        </mxCell>
        <mxCell id="yh1fPblWoHR3ejIN9CGP-29" value="" style="endArrow=classic;html=1;rounded=0;entryX=0.5;entryY=1;entryDx=0;entryDy=0;" parent="1" target="yh1fPblWoHR3ejIN9CGP-30" edge="1">
          <mxGeometry width="50" height="50" relative="1" as="geometry">
            <mxPoint x="-210" y="-20" as="sourcePoint" />
            <mxPoint x="-160" y="-70" as="targetPoint" />
          </mxGeometry>
        </mxCell>
        <mxCell id="yh1fPblWoHR3ejIN9CGP-30" value="&lt;pre style=&quot;background-color: #ffffff ; color: #080808 ; font-family: &amp;#34;jetbrains mono&amp;#34; , monospace ; font-size: 9.8pt&quot;&gt;&lt;pre style=&quot;font-family: &amp;#34;jetbrains mono&amp;#34; , monospace ; font-size: 9.8pt&quot;&gt;&lt;span style=&quot;color: #000000&quot;&gt;LocalAppManager #&lt;/span&gt;&lt;/pre&gt;&lt;/pre&gt;&lt;pre style=&quot;background-color: #ffffff ; color: #080808 ; font-family: &amp;#34;jetbrains mono&amp;#34; , monospace ; font-size: 9.8pt&quot;&gt;&lt;span style=&quot;color: rgb(0 , 98 , 122) ; font-family: &amp;#34;jetbrains mono&amp;#34; , monospace ; font-size: 9.8pt&quot;&gt;checkUpdateForground&lt;/span&gt;()&lt;/pre&gt;&lt;pre style=&quot;background-color: #ffffff ; color: #080808 ; font-family: &amp;#34;jetbrains mono&amp;#34; , monospace ; font-size: 9.8pt&quot;&gt;前台检查更新&lt;/pre&gt;" style="rounded=1;whiteSpace=wrap;html=1;" parent="1" vertex="1">
          <mxGeometry x="-190" y="-240" width="340" height="100" as="geometry" />
        </mxCell>
        <mxCell id="yh1fPblWoHR3ejIN9CGP-31" value="" style="endArrow=classic;html=1;rounded=0;exitX=0.585;exitY=0.998;exitDx=0;exitDy=0;exitPerimeter=0;" parent="1" source="yh1fPblWoHR3ejIN9CGP-30" target="yh1fPblWoHR3ejIN9CGP-4" edge="1">
          <mxGeometry width="50" height="50" relative="1" as="geometry">
            <mxPoint x="50" y="-20" as="sourcePoint" />
            <mxPoint x="100" y="-70" as="targetPoint" />
          </mxGeometry>
        </mxCell>
        <mxCell id="yh1fPblWoHR3ejIN9CGP-32" value="" style="endArrow=classic;html=1;rounded=0;exitX=0.628;exitY=1.015;exitDx=0;exitDy=0;exitPerimeter=0;entryX=0.799;entryY=-0.036;entryDx=0;entryDy=0;entryPerimeter=0;" parent="1" source="yh1fPblWoHR3ejIN9CGP-9" target="yh1fPblWoHR3ejIN9CGP-4" edge="1">
          <mxGeometry width="50" height="50" relative="1" as="geometry">
            <mxPoint x="490" y="-10" as="sourcePoint" />
            <mxPoint x="540" y="-60" as="targetPoint" />
          </mxGeometry>
        </mxCell>
        <mxCell id="yh1fPblWoHR3ejIN9CGP-33" value="" style="endArrow=classic;html=1;rounded=0;exitX=0.5;exitY=1;exitDx=0;exitDy=0;entryX=0.412;entryY=0;entryDx=0;entryDy=0;entryPerimeter=0;" parent="1" source="yh1fPblWoHR3ejIN9CGP-4" target="yh1fPblWoHR3ejIN9CGP-2" edge="1">
          <mxGeometry width="50" height="50" relative="1" as="geometry">
            <mxPoint x="300" y="190" as="sourcePoint" />
            <mxPoint x="350" y="140" as="targetPoint" />
          </mxGeometry>
        </mxCell>
        <mxCell id="yh1fPblWoHR3ejIN9CGP-34" value="" style="endArrow=classic;html=1;rounded=0;exitX=1.012;exitY=0.602;exitDx=0;exitDy=0;exitPerimeter=0;entryX=0.844;entryY=0;entryDx=0;entryDy=0;entryPerimeter=0;" parent="1" source="yh1fPblWoHR3ejIN9CGP-3" target="yh1fPblWoHR3ejIN9CGP-2" edge="1">
          <mxGeometry width="50" height="50" relative="1" as="geometry">
            <mxPoint x="920" y="-250" as="sourcePoint" />
            <mxPoint x="970" y="-300" as="targetPoint" />
            <Array as="points">
              <mxPoint x="1170" y="-410" />
              <mxPoint x="755" y="-150" />
            </Array>
          </mxGeometry>
        </mxCell>
        <mxCell id="yh1fPblWoHR3ejIN9CGP-35" value="" style="endArrow=classic;html=1;rounded=0;entryX=1;entryY=0;entryDx=0;entryDy=0;" parent="1" source="yh1fPblWoHR3ejIN9CGP-6" target="yh1fPblWoHR3ejIN9CGP-2" edge="1">
          <mxGeometry width="50" height="50" relative="1" as="geometry">
            <mxPoint x="1250" y="270" as="sourcePoint" />
            <mxPoint x="1300" y="220" as="targetPoint" />
          </mxGeometry>
        </mxCell>
        <mxCell id="yh1fPblWoHR3ejIN9CGP-36" value="" style="endArrow=classic;html=1;rounded=0;exitX=0.381;exitY=1.061;exitDx=0;exitDy=0;exitPerimeter=0;entryX=0.75;entryY=0;entryDx=0;entryDy=0;" parent="1" source="yh1fPblWoHR3ejIN9CGP-5" target="yh1fPblWoHR3ejIN9CGP-2" edge="1">
          <mxGeometry width="50" height="50" relative="1" as="geometry">
            <mxPoint x="800" y="230" as="sourcePoint" />
            <mxPoint x="850" y="180" as="targetPoint" />
          </mxGeometry>
        </mxCell>
        <mxCell id="yh1fPblWoHR3ejIN9CGP-37" value="" style="endArrow=classic;html=1;rounded=0;exitX=0.303;exitY=1.017;exitDx=0;exitDy=0;exitPerimeter=0;" parent="1" source="yh1fPblWoHR3ejIN9CGP-7" target="yh1fPblWoHR3ejIN9CGP-2" edge="1">
          <mxGeometry width="50" height="50" relative="1" as="geometry">
            <mxPoint x="1980" y="270" as="sourcePoint" />
            <mxPoint x="2030" y="220" as="targetPoint" />
          </mxGeometry>
        </mxCell>
        <mxCell id="yh1fPblWoHR3ejIN9CGP-38" value="&lt;pre style=&quot;background-color: #ffffff ; color: #080808 ; font-family: &amp;#34;jetbrains mono&amp;#34; , monospace ; font-size: 9.8pt&quot;&gt;&lt;span style=&quot;color: #00627a&quot;&gt;PendingUpdateNotification # &lt;/span&gt;&lt;/pre&gt;&lt;pre style=&quot;background-color: #ffffff ; color: #080808 ; font-family: &amp;#34;jetbrains mono&amp;#34; , monospace ; font-size: 9.8pt&quot;&gt;&lt;span style=&quot;color: #00627a&quot;&gt;showOrCancel&lt;/span&gt;(&lt;span style=&quot;color: #000000&quot;&gt;String &lt;/span&gt;updateSource,&lt;span style=&quot;color: #000000&quot;&gt;String &lt;/span&gt;newInstalledPackageName, &lt;span style=&quot;font-size: 9.8pt ; white-space: normal ; color: rgb(0 , 51 , 179)&quot;&gt;boolean &lt;/span&gt;&lt;span style=&quot;font-size: 9.8pt ; white-space: normal&quot;&gt;isUpdateExistNotification)&lt;/span&gt;&lt;span style=&quot;font-family: &amp;#34;jetbrains mono&amp;#34; , monospace ; font-size: 9.8pt ; white-space: normal&quot;&gt;)&lt;/span&gt;&lt;/pre&gt;&lt;pre style=&quot;background-color: #ffffff ; color: #080808 ; font-family: &amp;#34;jetbrains mono&amp;#34; , monospace ; font-size: 9.8pt&quot;&gt;对通知进行条件拦截&lt;/pre&gt;&lt;pre style=&quot;background-color: #ffffff ; color: #080808 ; font-family: &amp;#34;jetbrains mono&amp;#34; , monospace ; font-size: 9.8pt&quot;&gt;1. app里是否设置了关闭通知&lt;/pre&gt;&lt;pre style=&quot;background-color: #ffffff ; color: #080808 ; font-family: &amp;#34;jetbrains mono&amp;#34; , monospace ; font-size: 9.8pt&quot;&gt;2.待更新应用是否&amp;gt;0&lt;/pre&gt;&lt;pre style=&quot;background-color: #ffffff ; color: #080808 ; font-family: &amp;#34;jetbrains mono&amp;#34; , monospace ; font-size: 9.8pt&quot;&gt;3.！（和上次更新内容一样&amp;amp;更新通知不存在&amp;amp;当前时间距离上次展示小于更新忽略间隔）&lt;/pre&gt;" style="rounded=1;whiteSpace=wrap;html=1;" parent="1" vertex="1">
          <mxGeometry x="100" y="540" width="680" height="220" as="geometry" />
        </mxCell>
        <mxCell id="yh1fPblWoHR3ejIN9CGP-39" value="" style="endArrow=classic;html=1;rounded=0;exitX=0.466;exitY=1.006;exitDx=0;exitDy=0;exitPerimeter=0;entryX=0.411;entryY=0.007;entryDx=0;entryDy=0;entryPerimeter=0;" parent="1" source="yh1fPblWoHR3ejIN9CGP-2" target="yh1fPblWoHR3ejIN9CGP-38" edge="1">
          <mxGeometry width="50" height="50" relative="1" as="geometry">
            <mxPoint x="530" y="530" as="sourcePoint" />
            <mxPoint x="580" y="480" as="targetPoint" />
          </mxGeometry>
        </mxCell>
        <mxCell id="yh1fPblWoHR3ejIN9CGP-40" value="" style="endArrow=classic;html=1;rounded=0;exitX=0.5;exitY=1;exitDx=0;exitDy=0;" parent="1" source="yh1fPblWoHR3ejIN9CGP-7" target="yh1fPblWoHR3ejIN9CGP-38" edge="1">
          <mxGeometry width="50" height="50" relative="1" as="geometry">
            <mxPoint x="1820" y="430" as="sourcePoint" />
            <mxPoint x="1870" y="380" as="targetPoint" />
          </mxGeometry>
        </mxCell>
        <mxCell id="yh1fPblWoHR3ejIN9CGP-50" value="对于已经存在更新通知的情况，不验证时间间隔等限制条件" style="edgeLabel;html=1;align=center;verticalAlign=middle;resizable=0;points=[];" parent="yh1fPblWoHR3ejIN9CGP-40" vertex="1" connectable="0">
          <mxGeometry x="-0.1275" y="2" relative="1" as="geometry">
            <mxPoint as="offset" />
          </mxGeometry>
        </mxCell>
        <mxCell id="yh1fPblWoHR3ejIN9CGP-41" value="&lt;pre style=&quot;background-color: #ffffff ; color: #080808 ; font-family: &amp;#34;jetbrains mono&amp;#34; , monospace ; font-size: 9.8pt&quot;&gt;&lt;span style=&quot;color: #00627a&quot;&gt;PendingUpdateNotification # &lt;/span&gt;&lt;/pre&gt;&lt;pre style=&quot;background-color: #ffffff ; color: #080808 ; font-family: &amp;#34;jetbrains mono&amp;#34; , monospace ; font-size: 9.8pt&quot;&gt;&lt;pre style=&quot;font-family: &amp;#34;jetbrains mono&amp;#34; , monospace ; font-size: 9.8pt&quot;&gt;&lt;span style=&quot;color: #00627a&quot;&gt;showPendingUpdateNotification&lt;/span&gt;(&lt;span style=&quot;color: #000000&quot;&gt;String &lt;/span&gt;updateSource, &lt;span style=&quot;color: #000000&quot;&gt;List&lt;/span&gt;&amp;lt;&lt;span style=&quot;color: #000000&quot;&gt;LocalAppInfo&lt;/span&gt;&amp;gt; visibleUpdates, &lt;span style=&quot;color: #000000&quot;&gt;String &lt;/span&gt;newInstalledPackageName,&lt;span style=&quot;color: #0033b3&quot;&gt;boolean &lt;/span&gt;isUpdateExistNotification) {&lt;/pre&gt;&lt;/pre&gt;&lt;pre style=&quot;background-color: #ffffff ; color: #080808 ; font-family: &amp;#34;jetbrains mono&amp;#34; , monospace ; font-size: 9.8pt&quot;&gt;展示通知前对通知进行验证和分类&lt;/pre&gt;" style="rounded=1;whiteSpace=wrap;html=1;" parent="1" vertex="1">
          <mxGeometry y="870" width="1027" height="100" as="geometry" />
        </mxCell>
        <mxCell id="yh1fPblWoHR3ejIN9CGP-42" value="" style="endArrow=classic;html=1;rounded=0;exitX=0.456;exitY=1;exitDx=0;exitDy=0;exitPerimeter=0;" parent="1" source="yh1fPblWoHR3ejIN9CGP-38" target="yh1fPblWoHR3ejIN9CGP-41" edge="1">
          <mxGeometry width="50" height="50" relative="1" as="geometry">
            <mxPoint x="440" y="820" as="sourcePoint" />
            <mxPoint x="490" y="770" as="targetPoint" />
          </mxGeometry>
        </mxCell>
        <mxCell id="yh1fPblWoHR3ejIN9CGP-43" value="调试面板" style="rounded=1;whiteSpace=wrap;html=1;" parent="1" vertex="1">
          <mxGeometry x="-660" y="710" width="120" height="60" as="geometry" />
        </mxCell>
        <mxCell id="yh1fPblWoHR3ejIN9CGP-44" value="" style="endArrow=classic;html=1;rounded=0;exitX=1;exitY=1;exitDx=0;exitDy=0;" parent="1" source="yh1fPblWoHR3ejIN9CGP-43" target="yh1fPblWoHR3ejIN9CGP-41" edge="1">
          <mxGeometry width="50" height="50" relative="1" as="geometry">
            <mxPoint x="-300" y="900" as="sourcePoint" />
            <mxPoint x="-250" y="850" as="targetPoint" />
          </mxGeometry>
        </mxCell>
        <mxCell id="yh1fPblWoHR3ejIN9CGP-45" value="&lt;pre style=&quot;background-color: #ffffff ; color: #080808 ; font-family: &amp;#34;jetbrains mono&amp;#34; , monospace ; font-size: 9.8pt&quot;&gt;&lt;span style=&quot;color: #00627a&quot;&gt;PendingUpdateNotification #  最终展示，一定会展示&lt;/span&gt;&lt;/pre&gt;&lt;pre style=&quot;background-color: #ffffff ; color: #080808 ; font-family: &amp;#34;jetbrains mono&amp;#34; , monospace ; font-size: 9.8pt&quot;&gt;&lt;pre style=&quot;font-family: &amp;#34;jetbrains mono&amp;#34; , monospace ; font-size: 9.8pt&quot;&gt;&lt;pre style=&quot;font-family: &amp;#34;jetbrains mono&amp;#34; , monospace ; font-size: 9.8pt&quot;&gt;&lt;span style=&quot;color: #00627a&quot;&gt;show&lt;/span&gt;(updateSource, visibleUpdates,newInstalledPackageName,isExisting,isOutstanding, notificationTag,isImportantApp)&lt;/pre&gt;&lt;/pre&gt;&lt;/pre&gt;&lt;pre style=&quot;background-color: #ffffff ; color: #080808 ; font-family: &amp;#34;jetbrains mono&amp;#34; , monospace ; font-size: 9.8pt&quot;&gt;展示或更新通知&lt;/pre&gt;" style="rounded=1;whiteSpace=wrap;html=1;" parent="1" vertex="1">
          <mxGeometry x="-10" y="1120" width="1027" height="100" as="geometry" />
        </mxCell>
        <mxCell id="yh1fPblWoHR3ejIN9CGP-46" value="" style="endArrow=classic;html=1;rounded=0;entryX=0.23;entryY=0.015;entryDx=0;entryDy=0;entryPerimeter=0;exitX=0.219;exitY=0.996;exitDx=0;exitDy=0;exitPerimeter=0;" parent="1" source="yh1fPblWoHR3ejIN9CGP-41" target="yh1fPblWoHR3ejIN9CGP-45" edge="1">
          <mxGeometry width="50" height="50" relative="1" as="geometry">
            <mxPoint x="226" y="980" as="sourcePoint" />
            <mxPoint x="540" y="990" as="targetPoint" />
            <Array as="points">
              <mxPoint x="226" y="1040" />
            </Array>
          </mxGeometry>
        </mxCell>
        <mxCell id="yh1fPblWoHR3ejIN9CGP-47" value="批量" style="edgeLabel;html=1;align=center;verticalAlign=middle;resizable=0;points=[];" parent="yh1fPblWoHR3ejIN9CGP-46" vertex="1" connectable="0">
          <mxGeometry x="0.053" y="-2" relative="1" as="geometry">
            <mxPoint as="offset" />
          </mxGeometry>
        </mxCell>
        <mxCell id="yh1fPblWoHR3ejIN9CGP-48" value="重点" style="endArrow=classic;html=1;rounded=0;exitX=0.465;exitY=0.996;exitDx=0;exitDy=0;exitPerimeter=0;entryX=0.476;entryY=0.015;entryDx=0;entryDy=0;entryPerimeter=0;" parent="1" source="yh1fPblWoHR3ejIN9CGP-41" target="yh1fPblWoHR3ejIN9CGP-45" edge="1">
          <mxGeometry width="50" height="50" relative="1" as="geometry">
            <mxPoint x="450" y="1040" as="sourcePoint" />
            <mxPoint x="500" y="990" as="targetPoint" />
            <Array as="points" />
          </mxGeometry>
        </mxCell>
        <mxCell id="yh1fPblWoHR3ejIN9CGP-49" value="分类" style="endArrow=classic;html=1;rounded=0;exitX=0.725;exitY=0.996;exitDx=0;exitDy=0;exitPerimeter=0;entryX=0.735;entryY=0;entryDx=0;entryDy=0;entryPerimeter=0;" parent="1" source="yh1fPblWoHR3ejIN9CGP-41" target="yh1fPblWoHR3ejIN9CGP-45" edge="1">
          <mxGeometry width="50" height="50" relative="1" as="geometry">
            <mxPoint x="740" y="1060" as="sourcePoint" />
            <mxPoint x="790" y="1010" as="targetPoint" />
          </mxGeometry>
        </mxCell>
      </root>
    </mxGraphModel>
  </diagram>
</mxfile>
